<svg width="256" height="256" viewBox="0 0 256 256" fill="none" xmlns="http://www.w3.org/2000/svg">
    <path d="m255.164 126.209-40.93-31.19a5.565 5.565 0 0 1-1.928-4.663l6.839-50.99a2.082 2.082 0 0 0-.565-1.924 2.095 2.095 0 0 0-1.924-.565l-33.242 4.471a1.845 1.845 0 0 0-1.477 1.19 125.829 125.829 0 0 0-9.122 78.269 125.865 125.865 0 0 0 39.217 68.356v.069a1.872 1.872 0 0 0 3.092-1.422 2.003 2.003 0 0 0 0-.424l-2.942-21.878a5.575 5.575 0 0 1 1.929-4.663l40.93-31.19a2.116 2.116 0 0 0 .958-1.691 2.114 2.114 0 0 0-.835-1.755zM115.413 164.345a124.521 124.521 0 0 0-73.678 22.289 1.939 1.939 0 0 0-1.012 1.627l-3.817 28.319a2.093 2.093 0 0 0 2.49 2.488l51.01-6.837a5.544 5.544 0 0 1 4.666 1.928l31.216 40.885a2.105 2.105 0 0 0 2.769.702 2.11 2.11 0 0 0 .761-.702l31.203-40.912a5.482 5.482 0 0 1 4.665-1.928l46.332 6.235h.37a1.973 1.973 0 0 0 1.82-1.215 1.97 1.97 0 0 0 .15-.754 1.901 1.901 0 0 0-.479-1.271 125.007 125.007 0 0 0-43.287-36.93 125.07 125.07 0 0 0-55.179-13.924zM41.01 160.27c.37.347.861.533 1.368.52a130.312 130.312 0 0 0 81.012-37.013 130.213 130.213 0 0 0 38.288-80.391v-.11a1.902 1.902 0 0 0-.411-1.19l-.082-.095-.109-.123L129.873.956A2.115 2.115 0 0 0 128.108 0a2.107 2.107 0 0 0-1.765.956L95.126 41.868a5.472 5.472 0 0 1-4.65 1.928l-51.012-6.837a2.093 2.093 0 0 0-2.49 2.489l6.84 50.99a5.563 5.563 0 0 1-1.929 4.662L.956 126.291a2.104 2.104 0 0 0 0 3.528l40.054 30.52v-.069z" fill="#24C87E"/>
</svg>
