<svg width="396" height="128" viewBox="0 0 396 128" fill="none" xmlns="http://www.w3.org/2000/svg">
    <path d="M35.367 45.946H21.093l-2.489 10.089H0L17.169 3.189h22.447l17.25 52.846h-19.09l-2.409-10.089zm-2.72-11.613L28.34 16.72h-.231l-2.084 8.968-2.165 8.644h8.787zM101.437 0v56.035H84.836l-.568-7.928c-2.246 5.281-6.575 8.725-12.665 8.725-9.863 0-15.328-7.523-15.328-20.57 0-13.37 5.615-21.054 15.41-21.054 2.423-.08 4.81.594 6.835 1.927a11.698 11.698 0 0 1 4.463 5.515V0h18.454zM82.983 36.02c0-5.12-1.157-7.847-3.924-7.847S74.89 29.7 74.89 36.02c0 6.32 1.598 7.927 4.168 7.927 2.57 0 3.924-2.404 3.924-7.927zM149.528 39.544h-25.47c.556 4.16 2.408 5.039 5.534 5.039 2.732 0 4.249-1.283 4.816-3.467l14.83 4.01c-1.875 7.893-10.917 11.706-19.924 11.706-14.517 0-22.934-7.523-22.934-20.8 0-13.278 8.903-20.801 22.216-20.801 13.638 0 21.337 7.846 21.337 19.53a25.41 25.41 0 0 1-.405 4.783zm-25.47-6.806h8.66c-.324-3.525-1.366-5.362-4.006-5.362-2.639 0-4.202 1.375-4.688 5.362h.034zM172.89 56.035h-18.454V0h18.454v56.035zM223.712 45.946l-.81 9.441a16.232 16.232 0 0 1-7.131 1.445c-6.182 0-10.836-2.08-12.353-6.483-2.165 3.837-6.946 6.483-12.908 6.483-8.509 0-13.163-3.998-13.163-10.643 0-5.847 3.855-9.534 10.917-10.967l12.665-2.646v-1.514c0-2.473-1.158-3.917-3.473-3.917s-3.844.959-4.087 4.807L177.81 29.71c.718-8.886 7.699-14.49 20.931-14.49 13.892 0 20.456 6.158 20.456 15.287V42.92c0 2.16.961 3.282 3.126 3.282a3.21 3.21 0 0 0 1.389-.255zm-22.783-3.328v-3.467l-3.126.717c-2.246.566-3.125 1.768-3.125 3.605a2.754 2.754 0 0 0 .861 2.139 2.779 2.779 0 0 0 2.183.75c1.772-.011 3.207-1.294 3.207-3.744zM270.298 28.659v27.376h-18.523V33.212c0-3.363-.949-4.403-2.883-4.403-2.639 0-3.762 1.768-3.762 6.09v21.136h-18.408V16.04h16.602l.405 8.724c2.315-6.09 7.062-9.522 13.95-9.522 7.988-.035 12.619 4.842 12.619 13.417zM308.641 54.174c-2.732 1.676-7.942 2.716-11.959 2.716-11.218-.058-17.123-3.872-17.123-14.272V28.416h-6.17V16.039h6.17V7.559l18.442-5.131V16.04h10.107v12.41h-10.141v11.29c0 3.675 1.528 5.04 4.816 5.04 1.743.076 3.477-.281 5.047-1.041l.811 10.435zM353.513 39.544h-25.47c.556 4.16 2.397 5.039 5.523 5.039 2.732 0 4.26-1.283 4.816-3.467l14.841 4.01c-1.887 7.893-10.94 11.706-19.924 11.706-14.517 0-22.934-7.523-22.934-20.8 0-13.278 8.892-20.801 22.205-20.801 13.638 0 21.336 7.846 21.336 19.53a26.452 26.452 0 0 1-.393 4.783zm-25.47-6.806h8.66c-.324-3.525-1.366-5.362-4.017-5.362-2.651 0-4.203 1.375-4.677 5.362h.034zM35.367 117.107H21.093l-2.489 10.089H0l17.169-52.834h22.447l17.25 52.834h-19.09l-2.409-10.089zm-2.72-11.555L28.34 87.894h-.231l-2.084 8.956-2.165 8.655 8.787.047zM102.93 99.82v27.376H84.488v-22.812c0-3.362-.96-4.402-2.894-4.402-2.64 0-3.762 1.756-3.762 6.078v21.136H59.378v-40.03H75.98l.406 8.725c2.315-6.079 7.061-9.522 13.892-9.522 8 0 12.653 4.876 12.653 13.45zM152.92 71.161v56.035h-16.602l-.555-7.928c-2.246 5.293-6.576 8.725-12.677 8.725-9.864 0-15.316-7.523-15.316-20.569 0-13.37 5.614-21.055 15.397-21.055 2.425-.08 4.815.593 6.841 1.926a11.71 11.71 0 0 1 4.469 5.516V71.16h18.443zm-18.443 36.02c0-5.119-1.157-7.846-3.924-7.846s-4.179 1.525-4.179 7.846 1.609 7.927 4.179 7.927c2.57 0 3.924-2.403 3.924-7.927zM203.904 117.107l-.799 9.442a16.15 16.15 0 0 1-7.143 1.444c-6.17 0-10.824-2.08-12.352-6.483-2.165 3.848-6.946 6.483-12.908 6.483-8.509 0-13.152-3.998-13.152-10.643 0-5.847 3.844-9.533 10.906-10.966l12.7-2.647v-1.514c0-2.484-1.158-3.928-3.473-3.928-2.316 0-3.856.959-4.099 4.807l-15.582-2.242c.729-8.887 7.71-14.491 20.942-14.491 13.893 0 20.445 6.16 20.445 15.288v12.411c0 2.161.961 3.282 3.126 3.282.476.024.95-.059 1.389-.243zm-22.748-3.281v-3.525l-3.126.728c-2.246.555-3.126 1.757-3.126 3.594a2.777 2.777 0 0 0 .869 2.139 2.803 2.803 0 0 0 2.187.75c1.725 0 3.196-1.283 3.196-3.686zM225.368 127.196h-18.442V71.161h18.442v56.035zM231.596 114.265V87.166h18.442v22.812c0 3.131.973 4.414 3.057 4.414 2.408 0 3.6-1.849 3.6-6.009V87.166h18.454v40.03h-16.602l-.405-8.482c-2.315 6.159-6.946 9.244-13.557 9.244-8.335.035-12.989-3.963-12.989-13.693zM323.054 99.982l-17.007 4.957c.163-4.241-1.157-6.16-3.368-6.16-3.207 0-4.492 2-4.492 8.645 0 6.933 1.933 8.17 4.573 8.17 2.315 0 3.368-1.849 3.612-5.293l16.52 5.119c-.243 6.726-7.861 12.562-20.051 12.562-14.518 0-23.154-7.523-23.154-20.801 0-13.278 8.902-20.8 22.216-20.8 14.703-.012 20.989 7.083 21.151 13.6zM345.189 127.196h-18.454v-40.03h18.454v40.03zm4.399-58.438-8.254 14.167h-12.989l4.804-14.167h16.439zM396 117.107l-.799 9.442a16.065 16.065 0 0 1-7.143 1.444c-6.17 0-10.824-2.08-12.352-6.483-2.165 3.848-6.946 6.483-12.909 6.483-8.497 0-13.151-3.998-13.151-10.643 0-5.847 3.855-9.533 10.905-10.966l12.677-2.647v-1.514c0-2.484-1.158-3.928-3.473-3.928s-3.855.959-4.098 4.807l-15.478-2.242c.717-8.887 7.698-14.491 20.931-14.491 13.892 0 20.444 6.16 20.444 15.288v12.411c0 2.161.961 3.282 3.126 3.282.452.014.902-.069 1.32-.243zm-22.772-3.281v-3.525l-3.126.728c-2.245.555-3.137 1.757-3.137 3.594a2.777 2.777 0 0 0 .869 2.139 2.803 2.803 0 0 0 2.187.75c1.76 0 3.207-1.283 3.207-3.686z" fill="#38423F"/>
</svg>
