<svg width="775" height="256" viewBox="0 0 775 256" fill="none" xmlns="http://www.w3.org/2000/svg">
    <path d="m255.001 126.209-40.903-31.19a5.565 5.565 0 0 1-1.928-4.663l6.836-50.99a2.101 2.101 0 0 0-1.455-2.452 2.089 2.089 0 0 0-1.033-.037l-33.221 4.471a1.845 1.845 0 0 0-1.476 1.19 125.904 125.904 0 0 0 30.076 146.625v.069a1.87 1.87 0 0 0 3.089-1.422 1.879 1.879 0 0 0 0-.424l-2.939-21.878a5.563 5.563 0 0 1 1.928-4.663l40.903-31.19a2.107 2.107 0 0 0 .123-3.446zM115.34 164.345a124.386 124.386 0 0 0-73.632 22.289 1.938 1.938 0 0 0-1.011 1.627l-3.815 28.319a2.094 2.094 0 0 0 1.455 2.451 2.08 2.08 0 0 0 1.033.037l50.98-6.837a5.537 5.537 0 0 1 4.66 1.928l31.198 40.885a2.102 2.102 0 0 0 2.766.702c.308-.167.57-.408.761-.702l31.183-40.912a5.475 5.475 0 0 1 4.662-1.928l46.303 6.235h.369a1.97 1.97 0 0 0 1.969-1.969 1.896 1.896 0 0 0-.479-1.271 124.926 124.926 0 0 0-98.402-50.854zM40.984 160.27c.37.347.86.533 1.367.52a130.191 130.191 0 0 0 80.96-37.013 130.24 130.24 0 0 0 38.263-80.391v-.11a1.895 1.895 0 0 0-.41-1.19l-.082-.095-.109-.123L129.79.956A2.112 2.112 0 0 0 128.026 0a2.106 2.106 0 0 0-1.763.956L95.066 41.868a5.468 5.468 0 0 1-4.648 1.928l-50.98-6.837a2.09 2.09 0 0 0-2.487 2.489l6.835 50.99A5.567 5.567 0 0 1 41.86 95.1L.955 126.291a2.103 2.103 0 0 0-.7 2.767c.166.308.407.569.7.761l40.029 30.52v-.069z" fill="#24C87E"/>
    <path d="M349.139 106.614h-16.856l-2.94 11.937h-21.969l20.274-62.53h26.508l20.37 62.53h-22.544l-2.843-11.937zm-3.213-13.742-5.085-20.84h-.274l-2.461 10.612-2.556 10.228h10.376zM427.158 52.246v66.305h-19.604l-.669-9.38c-2.653 6.249-7.766 10.324-14.956 10.324-11.648 0-18.101-8.902-18.101-24.34 0-15.82 6.631-24.914 18.196-24.914a13.834 13.834 0 0 1 13.343 8.806v-26.8h21.791zm-21.791 42.622c0-6.057-1.367-9.284-4.634-9.284-3.268 0-4.922 1.804-4.922 9.284s1.887 9.38 4.922 9.38c3.035 0 4.634-2.844 4.634-9.38zM483.947 99.039h-30.076c.656 4.922 2.844 5.961 6.535 5.961 3.226 0 5.017-1.517 5.687-4.102l17.512 4.745c-2.214 9.339-12.891 13.852-23.527 13.852-17.143 0-27.082-8.902-27.082-24.613 0-15.712 10.513-24.613 26.234-24.613 16.105 0 25.196 9.284 25.196 23.109a30.096 30.096 0 0 1-.479 5.66zm-30.076-8.054h10.226c-.383-4.17-1.613-6.345-4.73-6.345-3.117 0-4.963 1.627-5.537 6.345h.041zM511.535 118.551h-21.791V52.246h21.791v66.305zM571.55 106.614l-.957 11.172a19.147 19.147 0 0 1-8.421 1.709c-7.3 0-12.796-2.462-14.587-7.671-2.556 4.539-8.202 7.671-15.243 7.671-10.048 0-15.544-4.731-15.544-12.594 0-6.919 4.553-11.28 12.892-12.976l14.956-3.132v-1.791c0-2.926-1.367-4.635-4.101-4.635-2.735 0-4.539 1.134-4.826 5.688l-18.374-2.653c.848-10.515 9.091-17.147 24.717-17.147 16.405 0 24.156 7.288 24.156 18.09v14.686c0 2.557 1.135 3.884 3.692 3.884a3.784 3.784 0 0 0 1.64-.301zm-26.904-3.938v-4.102l-3.691.847c-2.652.67-3.691 2.093-3.691 4.267a3.272 3.272 0 0 0 1.017 2.53 3.266 3.266 0 0 0 2.578.888c2.092-.013 3.787-1.531 3.787-4.43zM626.562 86.158v32.393h-21.874V91.545c0-3.979-1.121-5.21-3.404-5.21-3.117 0-4.443 2.093-4.443 7.207v25.009h-21.737V71.226h19.605l.478 10.324c2.734-7.206 8.339-11.268 16.473-11.268 9.433-.04 14.902 5.73 14.902 15.876zM671.84 116.35c-3.227 1.982-9.378 3.213-14.122 3.213-13.247-.068-20.219-4.581-20.219-16.887V85.871h-7.287V71.226h7.287V61.189l21.777-6.071v16.108h11.935v14.686h-11.976v13.36c0 4.347 1.805 5.961 5.687 5.961a12.405 12.405 0 0 0 5.961-1.231l.957 12.348zM724.828 99.039h-30.076c.656 4.922 2.83 5.961 6.521 5.961 3.226 0 5.031-1.517 5.687-4.102l17.526 4.745c-2.228 9.339-12.919 13.852-23.528 13.852-17.143 0-27.082-8.902-27.082-24.613 0-15.712 10.5-24.613 26.221-24.613 16.104 0 25.196 9.284 25.196 23.109a31.403 31.403 0 0 1-.465 5.66zm-30.076-8.054h10.226c-.383-4.17-1.613-6.345-4.744-6.345s-4.963 1.627-5.523 6.345h.041zM349.139 190.818h-16.856l-2.94 11.937h-21.969l20.274-62.517h26.508l20.37 62.517h-22.544l-2.843-11.937zm-3.213-13.674-5.085-20.894h-.274l-2.461 10.598-2.556 10.241 10.376.055zM428.922 170.362v32.393h-21.778v-26.992c0-3.979-1.134-5.21-3.417-5.21-3.117 0-4.443 2.079-4.443 7.193v25.009h-21.792v-47.366h19.604l.479 10.324c2.734-7.193 8.339-11.268 16.405-11.268 9.446 0 14.942 5.771 14.942 15.917zM487.953 136.451v66.304h-19.604l-.657-9.38c-2.652 6.263-7.764 10.324-14.969 10.324-11.648 0-18.087-8.902-18.087-24.34 0-15.821 6.631-24.914 18.183-24.914a13.854 13.854 0 0 1 13.356 8.806v-26.8h21.778zm-21.778 42.621c0-6.057-1.367-9.285-4.634-9.285-3.268 0-4.936 1.805-4.936 9.285s1.901 9.38 4.936 9.38 4.634-2.844 4.634-9.38zM548.159 190.818l-.943 11.172a19.034 19.034 0 0 1-8.435 1.709c-7.287 0-12.782-2.462-14.587-7.671-2.556 4.553-8.202 7.671-15.243 7.671-10.048 0-15.53-4.731-15.53-12.594 0-6.919 4.539-11.281 12.878-12.976l14.997-3.132v-1.791c0-2.94-1.367-4.649-4.101-4.649s-4.553 1.135-4.84 5.688l-18.401-2.653c.862-10.515 9.105-17.147 24.731-17.147 16.405 0 24.143 7.289 24.143 18.091v14.686c0 2.557 1.134 3.883 3.691 3.883a3.732 3.732 0 0 0 1.64-.287zm-26.863-3.883v-4.171l-3.691.862c-2.652.656-3.691 2.078-3.691 4.252a3.294 3.294 0 0 0 3.609 3.419c2.037 0 3.773-1.518 3.773-4.362zM573.505 202.755h-21.778v-66.304h21.778v66.304zM580.86 187.454v-32.065h21.778v26.992c0 3.706 1.148 5.224 3.609 5.224 2.843 0 4.251-2.188 4.251-7.111v-25.105h21.792v47.366h-19.604l-.479-10.036c-2.734 7.288-8.202 10.939-16.008 10.939-9.843.041-15.339-4.69-15.339-16.204zM688.86 170.553l-20.083 5.866c.192-5.018-1.367-7.288-3.978-7.288-3.787 0-5.304 2.366-5.304 10.228 0 8.205 2.283 9.668 5.4 9.668 2.734 0 3.978-2.188 4.265-6.263l19.508 6.058c-.287 7.958-9.282 14.863-23.678 14.863-17.143 0-27.341-8.902-27.341-24.613s10.513-24.613 26.234-24.613c17.362-.014 24.785 8.382 24.977 16.094zM714.999 202.755h-21.792v-47.366h21.792v47.366zm5.195-69.149-9.748 16.765h-15.338l5.673-16.765h19.413zM775 190.818l-.943 11.172a18.951 18.951 0 0 1-8.435 1.709c-7.287 0-12.783-2.461-14.587-7.671-2.557 4.553-8.203 7.671-15.243 7.671-10.035 0-15.53-4.731-15.53-12.594 0-6.919 4.552-11.281 12.878-12.976l14.969-3.132v-1.791c0-2.94-1.367-4.649-4.101-4.649s-4.552 1.135-4.839 5.688l-18.278-2.653c.847-10.515 9.091-17.147 24.717-17.147 16.405 0 24.142 7.289 24.142 18.091v14.686c0 2.557 1.135 3.883 3.691 3.883a3.737 3.737 0 0 0 1.559-.287zm-26.891-3.883v-4.171l-3.691.862c-2.652.656-3.705 2.078-3.705 4.252a3.292 3.292 0 0 0 2.222 3.255 3.3 3.3 0 0 0 1.387.164c2.078 0 3.787-1.518 3.787-4.362z" fill="#38423F"/>
</svg>
